<svg width="161" height="56" viewBox="0 0 161 56" fill="none" xmlns="http://www.w3.org/2000/svg"><path d="M106.559 11H110.901V27.4628L110.895 27.456V41.456L110.901 41.4512V45.456H106.559V11Z" fill="#005288"/><path d="M113.65 35.2136V31.4848H117.509L123.834 21.384H128.648L121.804 32.1456C124.07 32.8064 125.832 34.0493 127.091 35.8744C128.381 37.668 129.026 39.7605 129.026 42.152V45.456H124.636V42.152C124.636 40.8304 124.338 39.6504 123.74 38.612C123.173 37.5736 122.371 36.7555 121.332 36.1576C120.294 35.5283 119.098 35.2136 117.745 35.2136H113.65Z" fill="#005288"/><path d="M99.7016 21.384H95.312V45.456H99.7016V21.384Z" fill="#005288"/><path d="M95.4536 16.7112C96.0514 17.2776 96.7437 17.5608 97.5304 17.5608C98.317 17.5608 98.9936 17.2776 99.56 16.7112C100.158 16.1133 100.457 15.4211 100.457 14.6344C100.457 13.8477 100.158 13.1712 99.56 12.6048C98.9936 12.0069 98.317 11.708 97.5304 11.708C96.7437 11.708 96.0514 12.0069 95.4536 12.6048C94.8872 13.1712 94.604 13.8477 94.604 14.6344C94.604 15.4211 94.8872 16.1133 95.4536 16.7112Z" fill="#005288"/><path d="M24.328 15.5784L13.0944 45.456H17.8616L20.788 37.4792H20.7898L22.2384 33.4672H22.204L23.8316 29.0548L25.1315 25.4547L25.1562 25.4639L28.2456 17.0888C28.3714 16.6797 28.5288 16.3651 28.7176 16.1448C28.9064 15.9245 29.1581 15.8144 29.4728 15.8144C29.8189 15.8144 30.0864 15.9245 30.2752 16.1448C30.464 16.3651 30.637 16.6797 30.7944 17.0888L36.6944 33.4672H25.2847L23.869 37.4792H38.0632L40.9424 45.456H45.8984L34.6176 15.5312C34.1456 14.2411 33.4533 13.3128 32.5408 12.7464C31.6597 12.1485 30.637 11.8496 29.4728 11.8496C28.3085 11.8496 27.2858 12.1485 26.4048 12.7464C25.5237 13.3443 24.8314 14.2883 24.328 15.5784Z" fill="#005288"/><path fill-rule="evenodd" clip-rule="evenodd" d="M53.0831 51.3088V55.0376H65.6855C67.9196 55.0376 69.6818 54.3768 70.9719 53.0552C72.262 51.7651 72.9071 50.0187 72.9071 47.816V33.5616C72.9071 31.0128 72.3879 28.7944 71.3495 26.9064C70.3426 24.9869 68.9108 23.4923 67.0543 22.4224C65.1978 21.3525 63.0108 20.8176 60.4935 20.8176C57.8818 20.8176 55.6476 21.3683 53.7911 22.4696C51.966 23.5709 50.5658 25.0656 49.5903 26.9536C48.6148 28.8416 48.1271 30.9656 48.1271 33.3256C48.1271 35.7485 48.6148 37.904 49.5903 39.792C50.5658 41.6485 51.9188 43.1117 53.6495 44.1816C55.3802 45.22 57.3783 45.7392 59.6439 45.7392C61.0284 45.7392 62.2713 45.5347 63.3727 45.1256C64.474 44.6851 65.4495 44.1029 66.2991 43.3792C67.1487 42.6555 67.8724 41.8373 68.4703 40.9248H68.5647V47.5328C68.5647 48.6656 68.2343 49.5781 67.5735 50.2704C66.9442 50.9627 66.0474 51.3088 64.8831 51.3088H53.0831ZM64.6471 40.8776C63.4514 41.6328 62.0511 42.0104 60.4463 42.0104C58.81 42.0104 57.394 41.6328 56.1983 40.8776C55.034 40.0909 54.1215 39.0525 53.4607 37.7624C52.8314 36.4408 52.5167 34.9933 52.5167 33.42C52.5167 31.7523 52.8314 30.2576 53.4607 28.936C54.1215 27.5829 55.034 26.5288 56.1983 25.7736C57.394 24.9869 58.81 24.5936 60.4463 24.5936C62.114 24.5936 63.5458 24.9869 64.7415 25.7736C65.9372 26.5288 66.8655 27.5672 67.5263 28.8888C68.1871 30.2104 68.5175 31.7051 68.5175 33.3728C68.5175 35.0091 68.1713 36.488 67.4791 37.8096C66.8183 39.0997 65.8743 40.1224 64.6471 40.8776Z" fill="#005288"/><path d="M78.4985 45.456V28.228C78.4985 26.0883 79.0964 24.4205 80.2921 23.2248C81.5193 21.9976 83.2028 21.384 85.3425 21.384H90.2985V25.1128H86.1449C85.1065 25.1128 84.2884 25.4117 83.6905 26.0096C83.1241 26.6075 82.8409 27.4413 82.8409 28.5112V45.456H78.4985Z" fill="#005288"/><path d="M139.098 21.384H134.708V45.456H139.098V21.384Z" fill="#005288"/><path d="M134.85 16.7112C135.447 17.2776 136.14 17.5608 136.926 17.5608C137.713 17.5608 138.39 17.2776 138.956 16.7112C139.554 16.1133 139.853 15.4211 139.853 14.6344C139.853 13.8477 139.554 13.1712 138.956 12.6048C138.39 12.0069 137.713 11.708 136.926 11.708C136.14 11.708 135.447 12.0069 134.85 12.6048C134.283 13.1712 134 13.8477 134 14.6344C134 15.4211 134.283 16.1133 134.85 16.7112Z" fill="#005288"/><path d="M154.689 45.456C152.549 45.456 150.866 44.8424 149.638 43.6152C148.443 42.388 147.845 40.7203 147.845 38.612V25.1128H143.691V21.384H147.845V15.3424H152.187V21.384H160.447V25.1128H152.187V38.3288C152.187 39.3672 152.47 40.2011 153.037 40.8304C153.635 41.4283 154.453 41.7272 155.491 41.7272H160.353V45.456H154.689Z" fill="#005288"/><path d="M0 0V13.0154C0 13.0154 0.237362 18 5.1033 18H15.3099L3.95604 3.95604L0 0Z" fill="#387C2B"/><path d="M0 0H13.0154C13.0154 0 18 0.237363 18 5.1033C18 9.96923 18 15.3099 18 15.3099L3.95604 3.95604L0 0Z" fill="#66B360"/></svg>